<svg xmlns="http://www.w3.org/2000/svg" viewBox="0 0 646.53 989.1"><defs><style>.cls-1{fill:#fff;}</style></defs><g id="Layer_2" data-name="Layer 2"><g id="black_and_white" data-name="black and white"><g id="hc_NMIT" data-name="hc NMIT"><g id="nmit_white_out" data-name="nmit white out"><path class="cls-1" d="M179.37,989.1V913.2h20.37l28.19,55.18V913.2h15.9v75.9h-21.2L195.16,935V989.1Z"/><path class="cls-1" d="M266.93,989.1V913.2h22.89L308,970.55l18.2-57.35h23.73v75.9H334.88V931.75L316.21,989.1H299.7L281.87,934V989.1Z"/><path class="cls-1" d="M373.32,989.1V913.2h16v75.9Z"/><path class="cls-1" d="M428.08,989.1V926.81H405.43V913.2h61.2v13.61H444V989.1Z"/></g><path id="Hack_Club" data-name="Hack Club" class="cls-1" d="M84.69,762.22l-24.63,4.33v44.37H24.89c.13-7.3.13-15,.13-22V762.35L.27,766.68V872.61H25V829.19H60.2v43.42H84.82V771.15ZM269.76,764l-23.67,4V872.61h23.67v-32.2h.14c19.88,32.61.4.68,19.75,32.2h23.94l-24.48-37.47L312,797.26H288.84l-19.08,31.25V764Zm200.36,0-23.67,4v86.05c0,10.69,6.09,19.07,19.75,19.07a52.14,52.14,0,0,0,19.48-3.92l-2.3-14.88a48.91,48.91,0,0,1-7.3.81c-4.47,0-6.09-1.62-6.09-6.49V764Zm132.32,0-23.68,4v101.2c1.62.54,17.45,4.33,29.9,4.33,22.32,0,37.61-16.91,37.61-39.77,0-22.6-9.2-37.48-28.14-37.48a18.45,18.45,0,0,0-15.56,7.58V764Zm-195,5.81c-30.57,0-45.32,22.33-45.32,53.44,0,32.07,13.67,50.33,44.38,50.33,12.17,0,21.78-2.3,27.87-4.87L429,851.91a51.56,51.56,0,0,1-19.49,4.2c-15.82,0-20.7-14.21-20.7-34.5,0-21.24,5.69-34.23,18.54-34.23,5.28,0,10.42,1.9,16,8.52l13.53-13.66C431.16,775.88,423.58,769.79,407.48,769.79ZM215.1,795.9c-20.83,0-36.39,14.21-36.39,41.13,0,22.05,10.15,36.94,34.64,36.94,13.39,0,22.18-4.87,22.32-5.14L231.34,853c-.41.13-7.85,3-12.58,3-6.5,0-14.88-2.7-14.88-21.51,0-19.07,7.84-21,12.85-21,4.06,0,6.22,2.17,8.66,5.14l11.63-12A26.48,26.48,0,0,0,215.1,795.9Zm-80.49.41c-22.33,0-37.61,17.05-37.61,39.91,0,22.46,9.2,37.34,29,37.34,10.82,0,17.32-5.41,20.56-14.61,1.76,9.88,7.17,14.88,7.17,14.88l19.08-6s-8.25-7.58-8.25-31.39V800.64C164.1,800.77,147.05,796.31,134.61,796.31Zm359.87,1.08v50.06c0,15.83,5.95,26.11,21.64,26.11,10.55,0,20.3-4.19,25.44-13.53a31.1,31.1,0,0,0,7,13.8l19.08-6s-8.26-7.58-8.26-31.39v-39.1H535.74v37.48c0,13-5.82,21.24-11.37,21.24-4.6,0-6-4.6-6-11.77v-47ZM134.61,813.63a21.24,21.24,0,0,1,6.09,1.21v17.32c0,12.58-4.88,23.81-11.1,23.81-7.17,0-7.57-10.41-7.57-21.51.13-11.9,2.84-20.83,12.58-20.83Zm478.78,0c7.17,0,7.58,10.41,7.58,21.64,0,12-2.71,20.84-12.45,20.84a31,31,0,0,1-6.08-1.08v-16C602.44,825.67,606.9,813.63,613.39,813.63Z"/><path id="white_logo" data-name="white logo" class="cls-1" d="M557.48,177.26,369,68.45V12.71L605.75,149.39ZM454.92,614.11A8,8,0,0,1,443,607.2V345.86c0-99.14-38.77-136.26-89.76-136.26-40.49,0-65.77,21.75-79,52.56V69.87l.09-.05V14.08L42.38,148l48.22,27.9,96.94-56a8,8,0,0,1,11.92,6.89v333a37.39,37.39,0,0,0,37.39,37.38h0a37.39,37.39,0,0,0,37.38-37.38V383.38c0-60.31,14.21-92.45,50.29-92.45,34.88,0,44.71,29.27,44.71,69.85V664.2h.06v55.3L610.63,582.08,561,553.73ZM38.36,580l236,136.23V660.5L86.62,552.14Zm-4-352.79a30.42,30.42,0,0,0,.75-60.83h-.75a30.42,30.42,0,1,0,0,60.83Zm576.31,275a30.44,30.44,0,0,0-29.17,21.81h0a30.45,30.45,0,0,0,29,39h.21a30.42,30.42,0,1,0,0-60.83ZM63.7,531.42a30.25,30.25,0,0,0-1.6-9.75h0a30.68,30.68,0,0,0-5.87-10.22,30.42,30.42,0,1,0-22.94,50.39c.58,0,1.16,0,1.73,0h0A30.41,30.41,0,0,0,63.7,531.42ZM582.06,196.55a30.42,30.42,0,1,0,30.42-30.41l-1.39,0A30.42,30.42,0,0,0,582.06,196.55ZM330.56,668.24a30.42,30.42,0,1,0,23.13,29.53A30.28,30.28,0,0,0,330.56,668.24ZM316,60a30.43,30.43,0,1,0-23.12-29.54A30.25,30.25,0,0,0,316,60ZM598.26,251.38V472.86l48.27,27.95V223.51Zm-550,2.22L0,225.67V504.61l48.27-27.87Z"/></g></g></g></svg>