<svg xmlns="http://www.w3.org/2000/svg" viewBox="0 0 1046.84 397.96"><defs><style>.cls-1{fill:#fff;}</style></defs><g id="Layer_2" data-name="Layer 2"><g id="green"><g id="Horizontal"><g id="hc_nmit" data-name="hc nmit"><path id="nmit_out" data-name="nmit out" class="cls-1" d="M578,312.42v-75.9h20.36L626.5,291.7V236.52h15.91v75.9H621.2l-27.47-54.1v54.1Zm87.55,0v-75.9h22.9l18.19,57.35,18.19-57.35h23.74v75.9H733.46V255.07l-18.68,57.35h-16.5l-17.84-55.06v55.06Zm106.39,0v-75.9h16v75.9Zm54.76,0V250.13H804V236.52h61.21v13.61H842.56v62.29Z"/><path id="Hack_Club" data-name="Hack Club" class="cls-1" d="M485.26,85.54l-24.62,4.33v44.37H425.46c.14-7.31.14-15,.14-22.05V85.67L400.84,90V195.93H425.6V152.5h35.17v43.43H485.4V94.47Zm185.08,1.75-23.68,4.06V195.93h23.68v-32.2h.13c19.89,32.61.41.68,19.75,32.2h23.95l-24.49-37.47,22.87-37.88H689.41l-19.07,31.25V87.29Zm200.36,0L847,91.35V177.4c0,10.68,6.09,19.07,19.76,19.07a52.24,52.24,0,0,0,19.48-3.92L884,177.67a49,49,0,0,1-7.31.81c-4.46,0-6.09-1.62-6.09-6.49V87.29Zm132.31,0-23.67,4.06v101.2c1.62.54,17.45,4.33,29.89,4.33,22.33,0,37.61-16.91,37.61-39.78,0-22.59-9.19-37.47-28.14-37.47a18.43,18.43,0,0,0-15.55,7.57V87.29Zm-195,5.82c-30.57,0-45.32,22.32-45.32,53.44,0,32.06,13.66,50.33,44.37,50.33,12.18,0,21.78-2.3,27.87-4.87l-5.41-16.78a51.51,51.51,0,0,1-19.48,4.2c-15.83,0-20.7-14.21-20.7-34.5,0-21.24,5.68-34.23,18.53-34.23,5.28,0,10.42,1.89,16,8.52l13.53-13.66C831.74,99.2,824.16,93.11,808.06,93.11ZM615.68,119.22c-20.83,0-36.39,14.21-36.39,41.13,0,22.05,10.14,36.93,34.63,36.93,13.39,0,22.19-4.87,22.32-5.14l-4.33-15.83c-.4.14-7.84,3-12.58,3-6.49,0-14.88-2.7-14.88-21.51,0-19.08,7.85-21,12.85-21,4.06,0,6.23,2.17,8.66,5.14l11.64-12A26.49,26.49,0,0,0,615.68,119.22Zm-80.5.41c-22.32,0-37.61,17.05-37.61,39.91,0,22.46,9.2,37.34,28.95,37.34,10.83,0,17.32-5.41,20.57-14.61,1.76,9.87,7.17,14.88,7.17,14.88l19.07-6s-8.25-7.58-8.25-31.39V124C564.68,124.09,547.63,119.63,535.18,119.63Zm359.87,1.08v50.06c0,15.83,6,26.11,21.65,26.11,10.55,0,20.29-4.2,25.43-13.53a31.17,31.17,0,0,0,7,13.8l19.07-6S960,183.62,960,159.81v-39.1H936.31v37.48c0,13-5.81,21.24-11.36,21.24-4.6,0-6-4.6-6-11.77V120.71ZM535.18,137a21.17,21.17,0,0,1,6.09,1.21v17.32c0,12.58-4.87,23.81-11.09,23.81-7.17,0-7.58-10.42-7.58-21.51.14-11.91,2.84-20.83,12.58-20.83ZM1014,137c7.17,0,7.58,10.41,7.58,21.64,0,12-2.71,20.84-12.45,20.84a31.05,31.05,0,0,1-6.09-1.09v-16C1003,149,1007.48,137,1014,137Z"/></g><path class="cls-1" d="M304.66,96.87l-103-59.46V7L331,81.64ZM248.61,335.61a4.34,4.34,0,0,1-6.49-3.77V189c0-54.18-21.19-74.46-49.06-74.46-22.12,0-35.94,11.88-43.19,28.72V38.18l0,0V7.69L23.16,80.88,49.51,96.12l53-30.58A4.35,4.35,0,0,1,109,69.3v182a20.43,20.43,0,0,0,20.43,20.43h0a20.43,20.43,0,0,0,20.43-20.43V209.52c0-33,7.76-50.53,27.48-50.53,19.06,0,24.43,16,24.43,38.18V363h0v30.22l131.89-75.1-27.15-15.5ZM21,317l129,74.45V361L47.34,301.74Zm-2.21-192.8a16.62,16.62,0,0,0,.41-33.24h-.41A16.62,16.62,0,0,0,2.13,107.56a16.41,16.41,0,0,0,2.22,8.29A16.6,16.6,0,0,0,18.75,124.18Zm315,150.3a16.68,16.68,0,0,0-15.95,11.92h0a16.65,16.65,0,0,0,15.83,21.33h.12a16.63,16.63,0,1,0,0-33.25ZM34.81,290.42a16.82,16.82,0,0,0-.87-5.33h0a16.62,16.62,0,0,0-29.59-3.86A16.61,16.61,0,0,0,18.19,307c.32,0,.64,0,.95,0h0A16.62,16.62,0,0,0,34.81,290.42Zm283.29-183A16.62,16.62,0,1,0,334.72,90.8H334A16.62,16.62,0,0,0,318.1,107.42ZM180.65,365.2a16.45,16.45,0,0,0-8,0A16.63,16.63,0,0,0,160,381.34,16.64,16.64,0,0,0,176.66,398a16.62,16.62,0,0,0,4-32.76Zm-8-332.44a16.78,16.78,0,0,0,8,0,16.63,16.63,0,1,0-8,0ZM327,137.38v121l26.38,15.27V122.15ZM26.38,138.59,0,123.33V275.77l26.38-15.23Z"/></g></g></g></svg>